<svg xmlns="http://www.w3.org/2000/svg" xmlns:xlink="http://www.w3.org/1999/xlink" viewBox="0 0 21 43" version="1.1">
    <polygon id="Fill-1" fill="#ffc320"
             points="10.3026047 4.56322816e-05 9.9525218 1.08951636 8.81921035 1.08951636 9.7360618 1.76259252 9.38586608 2.85206324 10.3026047 2.17875893 11.2193433 2.85206324 10.8691475 1.76259252 11.7858861 1.08951636 10.6526875 1.08951636"/>
    <polygon id="Fill-2" fill="#ffc320"
             points="9.95248795 18.6912906 8.81928935 18.6912906 9.73602794 19.3643668 9.38583222 20.4538375 10.3025708 19.7806473 11.2194223 20.4538375 10.8691137 19.3643668 11.7858523 18.6912906 10.6527665 18.6912906 10.3025708 17.6018199"/>
    <polygon id="Fill-3" fill="#ffc320"
             points="18.6747314 9.91976216 17.5416457 9.91976216 18.4582714 10.5928383 18.1081886 11.682309 19.0247014 11.0090047 19.9415529 11.682309 19.59147 10.5928383 20.5079829 9.91976216 19.3751229 9.91976216 19.0247014 8.83029144"/>
    <polygon id="Fill-4" fill="#ffc320"
             points="1.24588646 9.89029512 0.112800717 9.89029512 1.02953931 10.5633713 0.679456445 11.652842 1.59608218 10.9796518 2.51270792 11.652842 2.16262505 10.5633713 3.07936364 9.89029512 1.94616505 9.89029512 1.59608218 8.80093847"/>
    <polygon id="Fill-5" fill="#ffc320"
             points="2.75682921 4.34183175 3.10713779 5.4311884 4.24033639 5.4311884 3.32348494 6.10449272 3.67368066 7.19373528 2.75682921 6.52054505 1.84020347 7.19373528 2.19039919 6.10449272 1.2736606 5.4311884 2.40663349 5.4311884"/>
    <polygon id="Fill-6" fill="#ffc320"
             points="5.86227414 1.11476242 6.21246986 2.20423315 7.34566846 2.20423315 6.42892987 2.87742338 6.77901273 3.96666595 5.86227414 3.29347571 4.94553554 3.96666595 5.29573127 2.87742338 4.37899267 2.20423315 5.51207841 2.20423315"/>
    <polygon id="Fill-7" fill="#ffc320"
             points="17.7031217 4.34183175 18.0533174 5.4311884 19.186516 5.4311884 18.2697774 6.10449272 18.6198603 7.19373528 17.7031217 6.52054505 16.7863831 7.19373528 17.1365788 6.10449272 16.2198402 5.4311884 17.352926 5.4311884"/>
    <polygon id="Fill-8" fill="#ffc320"
             points="14.5686951 1.11476242 14.9188908 2.20423315 16.0522022 2.20423315 15.1353508 2.87742338 15.4854336 3.96666595 14.5686951 3.29347571 13.6519565 3.96666595 14.002265 2.87742338 13.0854136 2.20423315 14.2184993 2.20423315"/>
    <polygon id="Fill-9" fill="#ffc320"
             points="2.75682921 13.1426447 3.10713779 14.2321155 4.24033639 14.2321155 3.32348494 14.9053057 3.67368066 15.9946623 2.75682921 15.3214721 1.84020347 15.9946623 2.19039919 14.9053057 1.2736606 14.2321155 2.40663349 14.2321155"/>
    <polygon id="Fill-10" fill="#ffc320"
             points="5.86227414 16.2816438 6.21246986 17.3711145 7.34566846 17.3711145 6.42892987 18.0443047 6.77901273 19.1336614 5.86227414 18.4604711 4.94553554 19.1336614 5.29573127 18.0443047 4.37899267 17.3711145 5.51207841 17.3711145"/>
    <polygon id="Fill-11" fill="#ffc320"
             points="17.7031217 13.1426447 18.0533174 14.2321155 19.186516 14.2321155 18.2697774 14.9053057 18.6198603 15.9946623 17.7031217 15.3214721 16.7863831 15.9946623 17.1365788 14.9053057 16.2198402 14.2321155 17.352926 14.2321155"/>
    <polygon id="Fill-12" fill="#ffc320"
             points="14.5686951 16.2816438 14.9188908 17.3711145 16.0522022 17.3711145 15.1353508 18.0443047 15.4854336 19.1336614 14.5686951 18.4604711 13.6519565 19.1336614 14.002265 18.0443047 13.0854136 17.3711145 14.2184993 17.3711145"/>
    <path d="M10.9370541,43 L8.41921947,43 L3.51783466,35.1043956 L3.51783466,43 L1,43 L1,31 L3.51783466,31 L8.42761225,38.9120879 L8.42761225,31 L10.9370541,31 L10.9370541,43 Z M15.6537977,41.0137363 L21,41.0137363 L21,43 L13.1359631,43 L13.1359631,31 L15.6537977,31 L15.6537977,41.0137363 Z"
          id="NL" fill="#fff"/>

</svg>